<svg id="Layer_1" data-name="Layer 1" xmlns="http://www.w3.org/2000/svg" viewBox="0 0 1280 406.38"><defs><style>.cls-1{fill:#25b5ba;}</style></defs><path class="cls-1" d="M263.76,311.77H106.34L73.4,406.38H0L153.51,0h63.36L370.66,406.38H297Zm-137.6-56.94H243.94L185.05,86.25Z"/><path class="cls-1" d="M491.23,406.38H420.89V0h70.34Z"/><path class="cls-1" d="M578,406.38V0h120q53.88,0,95.6,24t64.61,68.11q22.89,44.1,22.89,101v20.38q0,57.78-23,101.6t-65.59,67.54Q750,406.39,695,406.38ZM648.65,56.94V350h46.06q55.53,0,85.26-34.75t30.29-99.78V192.87q0-66.17-28.75-101T698.05,56.94Z"/><path class="cls-1" d="M1173.1,311.77H1015.68l-32.93,94.61H909.34L1062.85,0h63.36L1280,406.38h-73.68Zm-137.6-56.94h117.79l-58.9-168.58Z"/></svg>