<svg id="Layer_1" data-name="Layer 1" xmlns="http://www.w3.org/2000/svg" viewBox="0 0 1280 788.34"><defs><style>.cls-1{fill:#25b5ba;}.cls-2{fill:#fff;}</style></defs><rect class="cls-1" width="1280" height="788.34" rx="128.18"/><path class="cls-2" d="M354,477.86H232.69l-25.38,72.92H150.73L269,237.58h48.83L436.4,550.78H379.61ZM248,434h90.78L293.35,304.05Z"/><path class="cls-2" d="M529.33,550.78H475.12V237.58h54.21Z"/><path class="cls-2" d="M596.23,550.78V237.58h92.49q41.52,0,73.68,18.5t49.8,52.48q17.63,34,17.64,77.87v15.71q0,44.52-17.75,78.3a124.57,124.57,0,0,1-50.55,52.05q-32.81,18.28-75.18,18.29Zm54.42-269.32V507.33h35.49q42.81,0,65.72-26.78t23.34-76.91V386.22q0-51-22.16-77.87t-64.32-26.89Z"/><path class="cls-2" d="M1054.84,477.86H933.52l-25.38,72.92H851.56l118.31-313.2h48.83l118.53,313.2h-56.79ZM948.79,434h90.78L994.18,304.05Z"/></svg>